<svg width="82" height="84" viewBox="0 0 82 84" fill="none" xmlns="http://www.w3.org/2000/svg">
<path d="M3.14581 52.9833L5.29997 61.0333C7.81664 70.4291 9.07914 75.1291 11.9333 78.175C14.186 80.5783 17.1003 82.2602 20.3083 83.0083C24.375 83.9583 29.075 82.7 38.475 80.1833C47.8666 77.6666 52.5666 76.4083 55.6125 73.5541C55.8625 73.3166 56.1125 73.0708 56.3458 72.8208C54.9269 72.6919 53.5163 72.4832 52.1208 72.1958C49.2208 71.6208 45.775 70.6958 41.7 69.6041L41.2541 69.4833L41.15 69.4583C36.7166 68.2666 33.0125 67.275 30.0541 66.2083C26.9416 65.0833 24.1166 63.6958 21.7125 61.4458C18.4055 58.3475 16.0913 54.3383 15.0625 49.925C14.3125 46.7208 14.5291 43.5791 15.1125 40.325C15.6708 37.2041 16.6708 33.4625 17.8708 28.9833L20.1 20.675L20.175 20.3833C12.175 22.5375 7.96247 23.8125 5.15414 26.4416C2.74786 28.696 1.06436 31.6135 0.316639 34.825C-0.633361 38.8875 0.624973 43.5875 3.14581 52.9833Z" fill="black"/>
<path fill-rule="evenodd" clip-rule="evenodd" d="M78.4582 36.3125L76.2999 44.3625C73.7791 53.7583 72.5207 58.4583 69.6666 61.5041C67.4144 63.909 64.5 65.5924 61.2916 66.3416C60.8874 66.4375 60.4791 66.5083 60.0624 66.5583C56.2499 67.0291 51.5957 65.7833 43.1291 63.5166C33.7332 60.9958 29.0332 59.7375 25.9874 56.8833C23.5818 54.63 21.8984 51.7141 21.1499 48.5041C20.1999 44.4375 21.4582 39.7416 23.9791 30.3458L26.1332 22.2958L27.1499 18.525C29.0457 11.5833 30.3207 7.76247 32.7666 5.14997C35.0193 2.74664 37.9336 1.06472 41.1416 0.316639C45.2082 -0.633361 49.9082 0.624973 59.3082 3.14581C68.6999 5.66247 73.3999 6.92081 76.4457 9.77081C78.852 12.0252 80.5355 14.9427 81.2832 18.1541C82.2332 22.2208 80.9749 26.9166 78.4582 36.3125ZM37.7166 32.5208C37.8229 32.1243 38.0063 31.7527 38.2563 31.4271C38.5064 31.1016 38.8181 30.8284 39.1736 30.6234C39.5292 30.4183 39.9218 30.2853 40.3288 30.2319C40.7358 30.1786 41.1493 30.206 41.5457 30.3125L61.6707 35.7083C62.0776 35.8048 62.461 35.982 62.7982 36.2293C63.1353 36.4767 63.4195 36.7892 63.6336 37.1483C63.8478 37.5075 63.9878 37.906 64.0452 38.3202C64.1025 38.7344 64.0762 39.1559 63.9677 39.5598C63.8592 39.9636 63.6708 40.3416 63.4135 40.6713C63.1563 41.001 62.8355 41.2757 62.4702 41.4792C62.1048 41.6826 61.7024 41.8107 61.2866 41.8558C60.8709 41.9009 60.4504 41.8621 60.0499 41.7416L39.9249 36.35C39.1251 36.1351 38.4433 35.6116 38.0292 34.8944C37.6152 34.1772 37.5027 33.3209 37.7166 32.5208ZM34.4832 44.5958C34.6981 43.796 35.2216 43.1142 35.9388 42.7001C36.6559 42.2861 37.5082 42.1736 38.3082 42.3875L50.3832 45.625C50.7921 45.7193 51.1777 45.8951 51.5172 46.1417C51.8566 46.3883 52.1429 46.7007 52.3591 47.0604C52.5752 47.42 52.7166 47.8195 52.775 48.235C52.8334 48.6505 52.8076 49.0735 52.699 49.4788C52.5904 49.884 52.4013 50.2633 52.1429 50.5939C51.8846 50.9246 51.5624 51.1998 51.1954 51.4032C50.8284 51.6066 50.4242 51.734 50.0069 51.7778C49.5896 51.8217 49.1678 51.781 48.7666 51.6583L36.6916 48.425C36.2951 48.3186 35.9234 48.1352 35.5979 47.8852C35.2723 47.6352 34.9992 47.3235 34.7941 46.9679C34.589 46.6123 34.456 46.2198 34.4027 45.8128C34.3493 45.4058 34.3767 44.9922 34.4832 44.5958Z" fill="black"/>
</svg>
