<svg width="57" height="57" viewBox="0 0 57 57" fill="none" xmlns="http://www.w3.org/2000/svg">
<path d="M52.25 56.625L32.5625 36.9375C31 38.1875 29.2031 39.1771 27.1719 39.9062C25.1406 40.6354 22.9792 41 20.6875 41C15.0104 41 10.2063 39.0333 6.275 35.1C2.34375 31.1667 0.377083 26.3625 0.375 20.6875C0.375 15.0104 2.34167 10.2063 6.275 6.275C10.2083 2.34375 15.0125 0.377083 20.6875 0.375C26.3646 0.375 31.1688 2.34167 35.1 6.275C39.0313 10.2083 40.9979 15.0125 41 20.6875C41 22.9792 40.6354 25.1406 39.9062 27.1719C39.1771 29.2031 38.1875 31 36.9375 32.5625L56.625 52.25L52.25 56.625ZM20.6875 34.75C24.5938 34.75 27.9146 33.3823 30.65 30.6469C33.3854 27.9115 34.7521 24.5917 34.75 20.6875C34.75 16.7812 33.3823 13.4604 30.6469 10.725C27.9115 7.98958 24.5917 6.62292 20.6875 6.625C16.7812 6.625 13.4604 7.99271 10.725 10.7281C7.98958 13.4635 6.62292 16.7833 6.625 20.6875C6.625 24.5938 7.99271 27.9146 10.7281 30.65C13.4635 33.3854 16.7833 34.7521 20.6875 34.75Z" fill="#4C4C4C"/>
</svg>
